<?xml version="1.0" encoding="UTF-8"?>
<svg id="Layer_1" data-name="Layer 1" xmlns="http://www.w3.org/2000/svg" viewBox="0 0 203.26 94.66">
  <defs>
    <style>
      .cls-1 {
        fill: #ff9666;
      }

      .cls-2 {
        fill: #277982;
      }
    </style>
  </defs>
  <path class="cls-2" d="M156.41,43.19v47.83c0,2.22-1.41,3.63-3.63,3.63h-18.98c-2.42,0-3.83-1.41-3.83-3.63V47.02c0-13.92-7.25-23.21-18.58-23.21-12.11,0-19.98,9.49-19.98,22.81v44.42c0,2.22-1.21,3.63-3.63,3.63h-18.96c-2.42,0-3.83-1.41-3.83-3.63V47.02c0-13.92-7.47-23.21-18.36-23.21-12.72,0-20.18,10.09-20.18,22.4v44.81c0,2.22-1.41,3.63-3.63,3.63H3.83c-2.42,0-3.83-1.41-3.83-3.63V5.45C0,3.23,1.41,1.82,3.83,1.82H15.34c2.22,0,3.63,1.41,3.83,3.63l.81,12.71C24.82,8.07,36.75,0,51.06,0s26.24,6.46,33.09,16.35C89.8,7.28,100.49,0,114.42,0c24.43,0,41.99,17.35,41.99,43.19Z"/>
  <path class="cls-1" d="M169.15,76.95c0-9.42,7.63-17.06,17.05-17.06,9.42,0,17.06,7.63,17.06,17.05,0,9.42-7.63,17.06-17.05,17.06h0c-9.31,.11-16.95-7.36-17.05-16.67,0-.13,0-.25,0-.38Z"/>
</svg>